<svg width="41" height="40" viewBox="0 0 41 40" fill="none" xmlns="http://www.w3.org/2000/svg">
<path d="M20.9305 20.554C19.2682 17.5877 17.6326 14.8633 16.0239 12.3807C14.3884 9.8659 12.8333 7.70572 11.3587 5.9002C9.884 4.09467 8.52999 2.69216 7.29664 1.69268C6.06329 0.693191 4.99082 0.193449 4.07921 0.193449C3.73066 0.193449 3.35529 0.354656 2.95311 0.677071C2.52412 0.999486 2.13535 1.41863 1.78679 1.93449C1.41142 2.45036 1.10309 3.01458 0.861778 3.62717C0.620471 4.20752 0.499817 4.77174 0.499817 5.31985C2.16216 5.96468 3.79769 6.81908 5.4064 7.88305C6.98831 8.91478 8.51659 10.1238 9.99124 11.5102C11.4391 12.8644 12.8333 14.3797 14.1739 16.0563C15.4877 17.7328 16.6808 19.5222 17.7533 21.4245C17.3243 22.7464 16.8015 24.165 16.1848 25.6804C15.5413 27.1635 14.8442 28.6143 14.0935 30.033C13.3427 31.4194 12.5384 32.709 11.6804 33.902C10.8224 35.0949 9.95103 36.046 9.06623 36.7553C9.20029 37.11 9.42819 37.4485 9.74994 37.7709C10.0717 38.0933 10.4202 38.3835 10.7956 38.6415C11.171 38.9316 11.5731 39.1573 12.0021 39.3185C12.4043 39.4797 12.7797 39.5603 13.1282 39.5603C13.8254 39.5603 14.4688 39.1573 15.0587 38.3513C15.6486 37.5775 16.2518 36.4007 16.8685 34.8208C17.4584 33.2088 18.0884 31.2259 18.7587 28.8723C19.4022 26.4864 20.1262 23.7136 20.9305 20.554ZM27.0034 39.8022C28.0223 39.512 28.8668 38.9961 29.5371 38.2546C30.2074 37.5452 30.8241 36.6425 31.3872 35.5463C31.1459 34.9337 30.8643 34.1276 30.5426 33.1282C30.194 32.1287 29.7785 30.9035 29.2958 29.4526C28.8132 27.9695 28.2368 26.2124 27.5665 24.1811C26.8962 22.1177 26.1186 19.7157 25.2338 16.9752C24.6708 15.2341 24.215 13.7671 23.8664 12.5742C23.4911 11.3813 23.1827 10.2206 22.9414 9.09211C22.6733 7.93141 22.4186 6.65787 22.1773 5.27149C21.936 3.8851 21.6544 2.12794 21.3327 0C20.2066 0.257932 19.1877 0.854399 18.2761 1.7894C17.3377 2.72441 16.5334 3.85286 15.8631 5.17476C16.158 5.62614 16.5065 6.31934 16.9087 7.25434C17.2841 8.1571 17.7131 9.25331 18.1957 10.543C18.6783 11.8326 19.2146 13.2674 19.8044 14.8472C20.3943 16.4271 21.011 18.1036 21.6544 19.8769C23.1023 23.7459 24.2418 27.2924 25.073 30.5166C25.9041 33.7085 26.5476 36.8037 27.0034 39.8022Z" fill="white"/>
<path d="M36.9226 24.9886C38.1756 25.5381 39.145 26.3084 39.8312 27.2994C39.9858 27.5224 40.1023 27.7412 40.1814 27.9559C40.2979 28.1747 40.4043 28.4039 40.5003 28.6433C40.1157 28.9446 39.7194 29.2788 39.3105 29.646C38.9225 29.9927 38.5225 30.3722 38.1106 30.7849C37.616 31.2801 37.1199 31.798 36.6219 32.3385C36.1617 32.8833 35.6484 33.5023 35.0818 34.1956C34.5151 34.8888 33.8935 35.6792 33.217 36.5664C32.5405 37.4535 31.7661 38.5019 30.8938 39.711C30.2827 39.9875 29.5343 40.0656 28.6486 39.9457C27.7801 39.8505 26.8567 39.6001 25.8784 39.1951C25.707 38.444 25.5013 37.517 25.2613 36.4148C25.0041 35.2878 24.6869 33.9478 24.3097 32.3956C23.9154 30.8185 23.4336 29.0143 22.8642 26.9831C22.2984 24.9064 21.6004 22.5635 20.7704 19.9542C20.2147 18.2449 19.7191 16.7483 19.2834 15.4643C18.8478 14.1803 18.407 12.9643 17.961 11.8165C17.5185 10.6234 17.04 9.40332 16.5254 8.15643C16.0108 6.90954 15.4052 5.48099 14.7088 3.87073C15.6702 3.24363 16.6384 2.90348 17.6133 2.85018C18.5918 2.7515 19.7022 2.9191 20.9448 3.35305C21.0031 3.8402 21.1471 4.57712 21.3768 5.56381C21.6065 6.55055 21.8963 7.74989 22.2461 9.16181C22.5993 10.5283 23.0142 12.0848 23.4909 13.8312C23.9505 15.5528 24.458 17.3941 25.0136 19.3552C25.5727 21.2709 26.082 23.0895 26.5415 24.8111C27.001 26.5327 27.416 28.0891 27.7864 29.4805C28.1774 30.8511 28.5272 32.0113 28.8359 32.9609C29.1446 33.9105 29.4276 34.5709 29.685 34.9427C29.9975 34.5876 30.2791 34.2636 30.5298 33.971C30.7805 33.6779 31.0328 33.3622 31.287 33.0238C31.524 32.6606 31.7815 32.2768 32.0597 31.8723C32.3413 31.4225 32.6676 30.8859 33.0385 30.2628C33.3648 29.7263 33.6773 29.2455 33.9761 28.8204C34.2577 28.3705 34.5462 27.9557 34.8416 27.5761C35.1403 27.151 35.4563 26.7507 35.7894 26.3752C36.1259 25.9543 36.5036 25.492 36.9226 24.9886Z" fill="white"/>
</svg>
